<svg focusable="false" viewBox="-6 0 72 72" xmlns="http://www.w3.org/2000/svg"><g fill="#231e1f"><path d="m7.4 43.4c.3.4 1 .5 1.5.2s.6-1 .3-1.5c-.3-.3-4.4-5.8.2-12.1.3-.5.3-1.2-.3-1.6-.4-.3-1.1-.2-1.5.3-5.4 7.6-.3 14.6-.2 14.7"></path><path d="m4.6 46.1c.4-.3.5-1.1.2-1.5-.3-.3-6.2-8.2.6-17.3.3-.4.3-1.1-.2-1.5-.5-.3-1.2-.3-1.6.3-7.8 10.4-.6 19.8-.5 19.8.4.6 1 .6 1.5.2"></path><path d="m40.4 19.7h-20.9c-3.3 0-5.9 2.6-5.9 5.9v20.8c0 3.2 2.6 5.8 5.9 5.8h20.9c3.1 0 5.9-2.6 5.9-5.8v-20.8c0-3.3-2.7-5.9-5.9-5.9m-10.5 26c-5.4 0-9.7-4.4-9.7-9.8s4.3-9.7 9.7-9.7c5.5 0 9.7 4.3 9.7 9.7.1 5.4-4.2 9.8-9.7 9.8"></path><path d="m29.9 30.3c-3.1 0-5.6 2.5-5.6 5.6 0 3.2 2.5 5.6 5.6 5.6 3.2 0 5.7-2.4 5.7-5.6.1-3.1-2.5-5.6-5.7-5.6"></path><path d="m52.6 43.4c-.3.4-1 .5-1.5.2s-.6-1-.3-1.5c.2-.3 4.3-5.8-.3-12.1-.3-.5-.3-1.2.3-1.6.4-.3 1.1-.2 1.5.3 5.5 7.6.4 14.6.3 14.7"></path><path d="m55.4 46.1c-.4-.3-.5-1.1-.2-1.5.3-.3 6.2-8.2-.6-17.3-.3-.4-.3-1.1.2-1.5.5-.3 1.2-.3 1.6.3 7.8 10.4.6 19.7.5 19.8-.4.6-1 .6-1.5.2"></path></g></svg>