<svg focusable="false" viewBox="-5 0 72 72" xmlns="http://www.w3.org/2000/svg"><g fill="#231e1f"><path d="m34.7 27.2h-7.7l-3.1 10.5h5.4l-5 9.4 12.8-12.3h-6.1z"></path><path d="m30.5 14.1c-12.1 0-21.9 9.8-21.9 21.9s9.8 21.9 21.9 21.9 21.9-9.8 21.9-21.9-9.8-21.9-21.9-21.9zm0 41.8c-11 0-19.9-8.9-19.9-19.9s8.9-19.9 19.9-19.9 19.9 8.9 19.9 19.9-8.9 19.9-19.9 19.9z"></path><path d="m30.5 5.5c-16.8 0-30.5 13.7-30.5 30.5s13.7 30.5 30.5 30.5 30.5-13.7 30.5-30.5-13.7-30.5-30.5-30.5zm0 60c-16.3 0-29.5-13.2-29.5-29.5s13.2-29.5 29.5-29.5 29.5 13.2 29.5 29.5-13.2 29.5-29.5 29.5z"></path></g></svg>