<svg focusable="false" viewBox="-9 0 72 72" xmlns="http://www.w3.org/2000/svg"><g fill="#231e1f"><path d="m51.4 19.9h-7.7v-7.7c0-2-1.6-3.7-3.7-3.7h-25c-2 0-3.7 1.6-3.7 3.7v7.6h-7.6c-1 0-1.9.4-2.6 1.1s-1.1 1.6-1.1 2.6l0 24.9c0 2 1.6 3.7 3.6 3.7h7.7v7.7c0 2 1.6 3.7 3.7 3.7h25c2 0 3.7-1.6 3.7-3.7v-7.6h7.6c2 0 3.6-1.6 3.7-3.7l.1-25c-.1-2-1.7-3.6-3.7-3.6zm-36.4-9.4h25c.9 0 1.7.7 1.7 1.7v7.7l-28.3-.1h-.1v-7.6c0-1 .8-1.7 1.7-1.7zm26.7 49.3c0 .9-.8 1.7-1.7 1.7h-25c-.9 0-1.7-.7-1.7-1.7v-7.7l28.3.1v7.6zm11.2-11.2c0 .9-.7 1.7-1.7 1.7h-8.6s0 0 0 0l-39-.1c-.9 0-1.6-.8-1.6-1.7l.1-25c0-.4.2-.9.5-1.2s.7-.5 1.2-.5h9.4.1.1l37.9.1c.9 0 1.7.8 1.6 1.7z"></path><path d="m31.1 28.9h-4.3l-2.8 7.1h3.4l-3.9 7.1 8-8.8h-3.2z"></path></g></svg>