<svg focusable="false" viewBox="0 0 72 72" xmlns="http://www.w3.org/2000/svg"><g fill="none" stroke="#12100b" stroke-miterlimit="10" stroke-width="1.5"><path d="m36.23 35h-30.64a1 1 0 0 1 -1-1v-23.7a1 1 0 0 1 1-1h40.9a1 1 0 0 1 1 1v6.55"></path><path d="m26.04 35.43v4.82"></path><path d="m13.15 40.24h22.91"></path><path d="m36.22 36.35v10.53a2.78 2.78 0 0 0 2.78 2.77h13.68a2.78 2.78 0 0 0 2.77-2.77v-27.27a2.78 2.78 0 0 0 -2.77-2.77h-13.68a2.78 2.78 0 0 0 -2.77 2.77v16.74z"></path><path d="m43.48 45.74h4.71" stroke-linecap="round"></path><path d="m32.06 18.56-7.2 7.19-4.84-4.83"></path></g></svg>