<svg focusable="false" viewBox="-8 0 72 72" xmlns="http://www.w3.org/2000/svg"><path d="m1309.98 1001.57h-14.8a5.124 5.124 0 0 1 -5.01-5.11v-9.089h2.22v9.089a2.854 2.854 0 0 0 2.79 2.84h14.8a2.846 2.846 0 0 0 2.78-2.84v-35.335a2.846 2.846 0 0 0 -2.78-2.841h-14.8a2.854 2.854 0 0 0 -2.79 2.841v7.953h-2.22v-7.953a5.128 5.128 0 0 1 5.01-5.115h14.8a5.135 5.135 0 0 1 5.01 5.115v35.335a5.131 5.131 0 0 1 -5.01 5.11zm-4.56-38.628h-5.68a1.137 1.137 0 0 1 0-2.273h5.68a1.137 1.137 0 0 1 0 2.273zm-25.6 53.058h-14.81a5.124 5.124 0 0 1 -5-5.11v-35.223a5.124 5.124 0 0 1 5-5.112h14.81a5.133 5.133 0 0 1 5.01 5.112v9.089h-2.23v-9.089a2.847 2.847 0 0 0 -2.78-2.841h-14.81a2.853 2.853 0 0 0 -2.78 2.841v35.223a2.852 2.852 0 0 0 2.78 2.84h14.81a2.846 2.846 0 0 0 2.78-2.84v-7.95h2.23v7.95a5.132 5.132 0 0 1 -5.01 5.11zm-4.68-4.54h-5.67a1.135 1.135 0 0 1 0-2.27h5.67a1.135 1.135 0 0 1 0 2.27zm11.47-14.205a1.1 1.1 0 0 1 -.79-.332 4.435 4.435 0 0 1 0-6.152 1.092 1.092 0 0 1 1.57 0 1.143 1.143 0 0 1 0 1.607 2.124 2.124 0 0 0 0 2.938 1.143 1.143 0 0 1 0 1.607 1.077 1.077 0 0 1 -.78.332zm-2.79 2.845a1.085 1.085 0 0 1 -.78-.336 8.494 8.494 0 0 1 0-11.834 1.093 1.093 0 0 1 1.57 0 1.143 1.143 0 0 1 0 1.607 6.114 6.114 0 0 0 0 8.62 1.143 1.143 0 0 1 0 1.607 1.107 1.107 0 0 1 -.79.336zm-2.78 2.84a1.055 1.055 0 0 1 -.78-.34 12.462 12.462 0 0 1 -3.59-8.877 12.194 12.194 0 0 1 3.6-8.644 1.094 1.094 0 0 1 1.57.021 1.153 1.153 0 0 1 -.02 1.607 9.922 9.922 0 0 0 -2.92 7.031 10.2 10.2 0 0 0 2.93 7.262 1.153 1.153 0 0 1 0 1.6 1.076 1.076 0 0 1 -.79.34zm7.46-21.251a1.1 1.1 0 0 1 -.79-.333 1.162 1.162 0 0 1 0-1.607 2.124 2.124 0 0 0 0-2.938 1.161 1.161 0 0 1 0-1.606 1.1 1.1 0 0 1 1.58 0 4.434 4.434 0 0 1 0 6.151 1.117 1.117 0 0 1 -.79.333zm2.78 2.841a1.121 1.121 0 0 1 -.79-.333 1.162 1.162 0 0 1 0-1.607 6.112 6.112 0 0 0 0-8.618 1.162 1.162 0 0 1 0-1.607 1.1 1.1 0 0 1 1.58 0 8.511 8.511 0 0 1 0 11.832 1.1 1.1 0 0 1 -.79.333zm2.78 2.841a1.079 1.079 0 0 1 -.78-.334 1.143 1.143 0 0 1 0-1.607 10.27 10.27 0 0 0 2.93-7.259 9.97 9.97 0 0 0 -2.92-7.031 1.15 1.15 0 0 1 -.02-1.605 1.092 1.092 0 0 1 1.57-.022 12.185 12.185 0 0 1 3.59 8.645 12.5 12.5 0 0 1 -3.58 8.879 1.1 1.1 0 0 1 -.79.334z" fill-rule="evenodd" transform="translate(-1260 -956)"></path></svg>