<svg focusable="false" viewBox="0 0 72 72" xmlns="http://www.w3.org/2000/svg"><g fill="#231e1f"><path d="m0 36c0-3.3 2.6-6 6-6 3.3 0 6 2.7 6 6s-2.7 6-6 6c-3.4 0-6-2.7-6-6zm9.8 0c0-2.1-1.7-3.9-3.8-3.9s-3.8 1.8-3.8 3.9 1.7 3.9 3.8 3.9 3.8-1.8 3.8-3.9z"></path><path d="m13.1 32.5h2.1v1.2c.6-.8 1.6-1.3 2.8-1.3 2.4 0 3.7 1.5 3.7 4v5.6h-2.2v-5.3c0-1.5-.7-2.4-2.1-2.4-1.2 0-2.2.9-2.2 2.5v5.1h-2.2v-9.4z"></path><path d="m22.7 37.2c0-2.7 2.1-4.9 4.9-4.9s4.8 2 4.8 4.8v.8h-7.6c.3 1.3 1.3 2.2 2.9 2.2 1.2 0 2.1-.6 2.6-1.6l1.8 1c-.9 1.5-2.4 2.5-4.5 2.5-2.9 0-4.9-2.1-4.9-4.8zm2.1-1.1h5.3c-.3-1.3-1.3-1.9-2.6-1.9s-2.3.7-2.7 1.9z"></path><path d="m37.3 37.8v-7.7h2.2v7.8c0 1.2.9 2 2 2s2-.9 2-2v-7.8h2.2v7.7c0 2.7-1.8 4.2-4.2 4.2-2.5 0-4.2-1.5-4.2-4.2z"></path><path d="m47.1 30.1h2.2v11.7h-2.2z"></path></g></svg>